HIERARCHY
ROOT ROOT
{
	OFFSET 0.000000 56.020000 -5.659234
	CHANNELS 6 Xposition Yposition Zposition Xrotation Yrotation Zrotation 
	JOINT C_spine0001_bind_JNT
	{
		OFFSET 0.000000 1.618999 0.000000
		CHANNELS 3 Xrotation Yrotation Zrotation
		JOINT C_spine0002_bind_JNT
		{
			OFFSET 0.000000 4.942001 0.000001
			CHANNELS 3 Xrotation Yrotation Zrotation
			JOINT C_spine0003_bind_JNT
			{
				OFFSET 0.000000 4.942001 -0.000000
				CHANNELS 3 Xrotation Yrotation Zrotation
				JOINT C_neck0001_bind_JNT
				{
					OFFSET 0.000000 17.026009 -0.000000
					CHANNELS 3 Xrotation Yrotation Zrotation
					JOINT C_neck0002_bind_JNT
					{
						OFFSET 0.000000 3.249985 0.000000
						CHANNELS 3 Xrotation Yrotation Zrotation
						JOINT C_head_bind_JNT
						{
							OFFSET 0.000000 5.278008 0.000000
							CHANNELS 3 Xrotation Yrotation Zrotation
							End Site
							{
								OFFSET 0.000000 0.000000 0.000000
							}
						}
					}
				}
				JOINT L_clavicle_bind_JNT
				{
					OFFSET 4.590000 12.067001 0.834000
					CHANNELS 3 Xrotation Yrotation Zrotation
					JOINT L_armUpper0001_bind_JNT
					{
						OFFSET 7.812635 0.512001 -3.452945
						CHANNELS 3 Xrotation Yrotation Zrotation
						JOINT L_armLower0001_bind_JNT
						{
							OFFSET 15.265892 -6.552116 -0.058157
							CHANNELS 3 Xrotation Yrotation Zrotation
							JOINT L_hand0001_bind_JNT
							{
								OFFSET 14.747667 -6.369995 5.049225
								CHANNELS 3 Xrotation Yrotation Zrotation
								End Site
								{
									OFFSET 0.000000 0.000000 0.000000
								}
							}
						}
					}
				}
				JOINT R_clavicle_bind_JNT
				{
					OFFSET -4.590000 12.067001 0.834000
					CHANNELS 3 Xrotation Yrotation Zrotation
					JOINT R_armUpper0001_bind_JNT
					{
						OFFSET -7.812635 0.512001 -3.452945
						CHANNELS 3 Xrotation Yrotation Zrotation
						JOINT R_armLower0001_bind_JNT
						{
							OFFSET -15.265890 -6.552124 -0.058160
							CHANNELS 3 Xrotation Yrotation Zrotation
							JOINT R_hand0001_bind_JNT
							{
								OFFSET -14.746784 -6.369629 5.048937
								CHANNELS 3 Xrotation Yrotation Zrotation
								End Site
								{
									OFFSET 0.000000 0.000000 0.000000
								}
							}
						}
					}
				}
			}
		}
	}
	JOINT C_pelvis0001_bind_JNT
	{
		OFFSET -0.000000 0.000000 0.000000
		CHANNELS 3 Xrotation Yrotation Zrotation
		JOINT L_legUpper0001_bind_JNT
		{
			OFFSET 6.599999 -6.027000 0.539000
			CHANNELS 3 Xrotation Yrotation Zrotation
			JOINT L_legLower0001_bind_JNT
			{
				OFFSET -0.140713 -19.187443 0.040261
				CHANNELS 3 Xrotation Yrotation Zrotation
				JOINT L_foot0001_bind_JNT
				{
					OFFSET -0.132215 -18.028637 -1.138370
					CHANNELS 3 Xrotation Yrotation Zrotation
					JOINT L_foot0002_bind_JNT
					{
						OFFSET 0.007014 -4.693133 9.886524
						CHANNELS 3 Xrotation Yrotation Zrotation
						End Site
						{
							OFFSET 0.000000 0.000000 0.000000
						}
					}
				}
			}
		}
		JOINT R_legUpper0001_bind_JNT
		{
			OFFSET -6.599999 -6.027000 0.539000
			CHANNELS 3 Xrotation Yrotation Zrotation
			JOINT R_legLower0001_bind_JNT
			{
				OFFSET 0.140710 -19.187164 0.040550
				CHANNELS 3 Xrotation Yrotation Zrotation
				JOINT R_foot0001_bind_JNT
				{
					OFFSET 0.132215 -18.028633 -1.138362
					CHANNELS 3 Xrotation Yrotation Zrotation
					JOINT R_foot0002_bind_JNT
					{
						OFFSET -0.007014 -4.693128 9.886505
						CHANNELS 3 Xrotation Yrotation Zrotation
						End Site
						{
							OFFSET 0.000000 0.000000 0.000000
						}
					}
				}
			}
		}
	}
}
MOTION
Frames: 6
Frame Time: 0.033333
0.000000 46.385849 0.000000 -0.020243 -35.380627 0.006966 -11.869127 33.249176 9.454008 11.349663 -0.085355 -0.473684 4.572422 0.505923 -0.548660 -3.993646 -0.466445 -0.259769 2.570986 -8.502603 -0.212300 20.780804 -0.331646 0.410775 -1.511490 12.454036 0.075110 1.876045 15.339998 -50.033943 -5.427248 -0.234040 -2.334489 14.912739 -34.570480 -33.653175 0.098452 -17.454769 2.348769 -1.949931 -16.444742 42.999424 -10.600428 34.699291 26.898060 11.816372 24.650284 30.169617 -9.218030 33.790966 7.861631 -6.375092 -0.231960 9.236749 12.099480 1.123549 -0.865905 2.056124 -5.038888 -10.270673 -0.511904 -0.392379 -1.223285 -8.014182 1.228830 1.493352 29.692019 2.857721 -1.686452 -15.338468 -6.953518 -2.836484 0.920070 -0.164954 -0.310502 
0.655592 46.552933 0.555656 0.010439 -36.321720 -0.015409 -12.367064 34.322437 10.048074 11.495206 0.258653 -0.306163 4.766308 0.356362 -0.357041 -4.446131 -0.020981 -1.140693 2.814634 -8.693691 0.174582 21.741974 -0.473262 -0.155804 -1.736828 13.058146 0.007502 2.680733 15.542969 -49.152271 -6.331209 -0.049471 -3.634414 14.817796 -33.383987 -35.106709 -0.191897 -16.590958 1.284728 -1.618245 -17.228046 44.143536 -12.212127 37.588047 28.169065 12.694633 23.175062 27.182220 -9.091904 34.917336 7.837046 -6.446725 0.892312 8.119272 12.262156 -0.109000 -0.424389 3.070311 -4.176214 -10.297810 -1.830583 -0.648028 -0.417523 -8.340456 1.968968 1.254462 31.219376 3.152304 -1.965689 -16.608246 -8.689656 -2.418693 0.618254 -0.066651 -0.490158 
0.137129 46.497601 0.111338 -0.002174 -36.398319 -0.004682 -12.747892 34.493744 10.563735 11.514862 0.201912 -0.459706 4.759845 0.453570 -0.475472 -4.460946 0.051784 -0.889855 2.828661 -9.144846 0.085674 22.105139 -0.553581 -0.057372 -2.117632 13.518733 0.511752 2.956654 16.155924 -49.542767 -5.838891 0.061398 -3.571921 13.789270 -33.532635 -35.716656 -0.358857 -16.635944 1.220475 -1.499177 -17.167065 44.369080 -13.561502 38.776081 29.915998 12.775249 22.891027 27.292074 -9.623272 35.162479 8.171396 -6.569503 1.313017 8.198880 10.817616 -0.810332 -0.481874 4.747189 -4.078175 -9.703104 -1.326053 -0.721167 -0.672239 -8.399445 1.933699 2.210835 31.864107 3.283942 -2.114616 -16.609522 -8.848865 -2.966763 0.555816 -0.169433 -0.588991 
0.046208 46.510811 0.188180 0.005784 -35.624969 -0.008678 -12.578772 34.141556 10.371112 11.378676 0.312635 -0.399811 4.613960 0.430072 -0.406679 -4.663806 0.064087 -0.942664 3.007976 -9.375966 0.077704 22.224604 -0.451210 -0.275805 -2.142380 13.534784 0.436213 3.264649 16.576096 -49.475796 -5.413950 0.860273 -3.407637 13.081110 -33.620865 -36.125759 -0.558590 -16.589380 0.805841 -1.686419 -16.642237 44.444611 -14.479286 38.994366 31.083233 13.252035 22.894630 26.923401 -9.386015 34.906441 8.098852 -6.603944 1.336079 8.230346 10.063786 -1.123767 -0.330190 4.866635 -3.840934 -9.777398 -0.938096 -0.880844 -0.780515 -8.255011 1.680998 2.046483 31.510090 3.384408 -2.204117 -16.530209 -8.960846 -2.873274 0.558043 -0.103986 -0.682273 
0.089021 46.567997 0.197242 0.007360 -35.088875 -0.006458 -12.695570 34.097710 10.464163 11.320252 0.430724 -0.491810 4.560209 0.511047 -0.460925 -4.684661 -0.014839 -0.828215 2.896994 -9.466444 -0.002675 22.455660 -0.396130 -0.605061 -2.193370 13.626275 0.461395 3.532926 16.723787 -49.606762 -5.430317 1.539092 -3.177405 13.231622 -33.469048 -35.929771 -0.835446 -16.402447 0.619305 -1.890481 -16.595345 44.467312 -14.459357 38.978813 31.225332 13.614885 22.849627 26.993576 -9.509642 34.877525 8.180234 -6.167763 1.207027 8.269149 8.845263 -0.904757 -0.500360 5.555091 -4.230670 -9.521812 -0.673976 -0.776336 -0.881804 -7.988675 1.546059 2.078419 31.380804 3.457835 -2.404230 -16.176016 -9.261186 -2.639282 0.289969 -0.213340 -0.874735 
0.087850 46.612465 0.180532 0.002584 -34.423843 -0.005293 -12.616955 33.950401 10.250534 11.078512 0.540969 -0.451420 4.460589 0.538331 -0.474142 -4.651900 0.143998 -0.656239 2.878144 -9.761892 -0.109257 22.711876 -0.452122 -0.732816 -2.278079 13.519598 0.538007 3.594505 17.255501 -49.480911 -5.107374 1.663123 -2.976299 13.324761 -33.263592 -36.081150 -0.829955 -16.412281 0.543615 -2.044344 -16.178389 44.550491 -14.490683 39.147003 31.054478 13.813861 22.410303 27.373024 -9.515278 34.597534 8.154478 -6.011085 1.315211 8.103311 8.116220 -0.932530 -0.369134 5.722975 -4.360053 -9.608388 -0.391587 -0.802340 -0.885320 -7.786296 1.469016 2.112962 31.265079 3.529279 -2.518837 -16.212393 -9.380466 -2.813257 0.317954 -0.077283 -0.773947 
